<svg width="68" height="72" viewBox="0 0 68 72" fill="none" xmlns="http://www.w3.org/2000/svg">
<g clip-path="url(#clip0_22_91216)">
<path d="M30.117 11.177C30.4404 11.0773 30.538 10.9874 30.67 10.9739C39.5695 12.0296 47.0038 15.8627 52.4219 23.0895C53.7947 24.911 54.6661 27.0503 55.061 29.3583C55.9849 34.374 53.6898 39.0903 49.2179 41.4264C46.9141 42.6481 44.4972 43.4143 41.8446 43.0439C41.1917 42.0029 40.577 40.9448 39.882 40.0149C38.741 38.5033 37.2403 37.522 35.292 37.3867C33.8509 37.2532 32.7027 37.7702 32.3662 38.6583C31.9244 39.824 32.407 40.8955 33.301 41.5517C34.5414 42.4661 35.9004 43.2351 37.2632 43.9102C38.1475 44.3406 39.1715 44.5699 40.1189 44.8338C41.4159 49.4514 38.1482 53.1325 32.4395 53.54C32.0106 52.9966 31.5645 52.4149 31.0974 51.8887C29.3151 49.9755 27.1235 48.891 24.4653 49.1215C23.4472 49.2117 22.4387 49.5278 22.0353 50.6762C21.737 51.547 22.2196 52.6186 23.3145 53.4144C25.0679 54.6502 27.0947 55.1644 29.1675 55.4739C29.8966 55.5598 30.6258 55.6457 31.3378 55.6933C33.5541 62.6588 29.6828 70.1104 22.5443 70.1029C22.8067 70.5832 22.958 71.0214 23.2145 71.1821C23.5092 71.3255 24.0164 71.3273 24.3781 71.2105C27.9068 70.3578 30.7579 68.6135 32.1769 65.1204C33.2593 62.5154 33.5571 59.8035 33.296 56.975C33.2557 56.5788 33.2153 56.1827 33.2133 55.7693C33.1961 55.731 33.2554 55.6583 33.3568 55.4745C33.7184 55.3577 34.1394 55.1681 34.5949 55.055C40.0851 53.5492 42.1436 50.965 42.3619 45.1125C42.8901 45.0588 43.4948 44.9706 44.0785 44.9378C47.4735 44.6058 50.4548 43.3552 52.9918 41.0158C57.1283 37.2195 58.3878 31.6347 56.3538 26.1982C55.2525 23.2417 53.514 20.7103 51.2742 18.4967C45.8356 13.1665 39.41 9.9379 31.7107 9.40049C31.3183 9.34701 30.905 9.34905 30.5126 9.29558C30.4571 9.27455 30.3844 9.21524 30.1661 9.03732C31.3295 8.14515 32.6058 7.70843 33.865 7.23344C35.0686 6.73741 36.345 6.30069 37.6806 5.79122C37.1177 4.84789 36.4096 4.70648 35.6555 4.76986C34.7867 4.88494 33.8834 4.92349 33.1008 5.22993C30.9997 6.0841 28.8776 6.99378 26.8244 8.05654C25.2304 8.91247 25.1676 9.99953 26.498 11.0115C29.3425 13.1369 32.2253 15.2451 35.1081 17.3532C35.5828 17.6918 36.0996 17.9194 36.7619 18.2656C37.1098 17.0962 36.5279 16.6217 36.0015 16.1683C34.0375 14.567 32.1672 12.9696 30.117 11.177ZM23.666 51.2307C26.4618 50.3859 28.8658 51.3287 30.0492 53.6497C27.7717 53.2945 25.5669 52.9985 23.666 51.2307ZM33.93 39.4731C36.4293 38.992 38.1903 40.0403 39.012 42.4782C37.0062 41.9085 35.1879 41.3464 33.93 39.4731Z" fill="black"/>
</g>
<defs>
<clipPath id="clip0_22_91216">
<rect width="48.8143" height="56.957" fill="white" transform="matrix(0.9118 -0.410634 -0.410634 -0.9118 23.3887 71.9782)"/>
</clipPath>
</defs>
</svg>
